<?xml version="1.0" encoding="UTF-8"?>
<svg xmlns="http://www.w3.org/2000/svg" version="1.1" viewBox="0 0 1442 116">
  <defs>
    <style>
      .cls-1 {
        fill: #fff;
      }

      .cls-1, .cls-2, .cls-3 {
        fill-rule: evenodd;
      }

      .cls-2 {
        fill: #770c4a;
      }

      .cls-3 {
        fill: #5e0a34;
      }
    </style>
  </defs>
  <!-- Generator: Adobe Illustrator 28.6.0, SVG Export Plug-In . SVG Version: 1.2.0 Build 709)  -->
  <g>
    <g id="Layer_1">
      <g id="Layer_1-2" data-name="Layer_1">
        <path id="Combined-Shape" class="cls-1" d="M1442,115.5H0V15.5c208.1,103.7,518.4,85.8,692.8,53.5l5.2-1C1024.5,5.9,1222.5-9,1433.6,14.7l8.4,2.7v98.1Z"/>
        <path id="Fill-1" class="cls-3" d="M1440.9,16.8c.8-.3.4-1.1-1.7-1.1l-1.6,1.2h3.3,0Z"/>
        <path id="Fill-3" class="cls-3" d="M1426.9,13.1c-2.5.4-5.5,1.3-4,2.6,2.6-1,3.1-.5,5.9-1.7,2.1,0,3.6.7,3.2,1.2.8-.3,3.2.6,4.5-.1-2.6-1.3-6.1-1.6-9.8-1.1-.8-.4,0-.6.2-.9"/>
        <path id="Fill-5" class="cls-3" d="M1220.6,1.8h1.3c-.4.1-.8,0-1.3,0"/>
        <path id="Fill-7" class="cls-3" d="M1092.4,5.8c1,0,1.4-.3,1.4-.4-.9,0-1.6.3-1.4.4"/>
        <path id="Fill-9" class="cls-3" d="M1070.5,5.9h1.3-1.3"/>
        <path id="Fill-11" class="cls-3" d="M1220.6,1.8l-3.4-.4c-.3.5,1.7.3,3.4.4"/>
        <path id="Fill-13" class="cls-3" d="M1398.3,13.8c.7,0,1.3-.1,1.9-.2h-1.7l-.2.2"/>
        <path id="Fill-15" class="cls-3" d="M1277.1,1.2h1c.3-.1.6-.3.9-.5l-1.9.5Z"/>
        <path id="Fill-17" class="cls-3" d="M1320.4,2.5c-1,0-1.4,1-1.8,1.5.6-.4,1.3-.6,2.2-.7,0-.2,0-.5-.4-.8"/>
        <path id="Fill-19" class="cls-3" d="M1389,8.5h1.2-1.2"/>
        <path id="Fill-21" class="cls-3" d="M1246,.6c0-.2-.2-.4-.4-.5,0,.2.2.3.4.5"/>
        <path id="Fill-24" class="cls-3" d="M46.1,38.3v-.2c-.3,0-.4,0,0,.2"/>
        <path id="Fill-26" class="cls-3" d="M1.2,14.7l.7.2c.2-.2.3-.3.4-.5,0,0-1.1.3-1.1.3Z"/>
        <path id="Fill-28" class="cls-3" d="M1030.4,8h.2c1-.2.4,0-.2,0"/>
        <path id="Fill-30" class="cls-3" d="M667.3,65.6c4.3.3-6.5,2.4,0,2.5-.6-.3,5.4-2.7,0-2.5"/>
        <path id="Fill-32" class="cls-3" d="M1397.2,13.6c-.6,0-1.2-.1-1.8-.1.8,0,1.4.1,1.8.1"/>
        <path id="Fill-34" class="cls-3" d="M667.3,68.1h.7-.7"/>
        <path id="Fill-36" class="cls-3" d="M938.7,19.6c.2.2.6.3,1,.4,0-.2-.2-.3-1-.4"/>
        <path id="Fill-38" class="cls-3" d="M1007.2,12.7h-1.7,1.7"/>
        <path id="Fill-40" class="cls-3" d="M903.6,26.2c-.9.1-1.3-.1-2.5.3,0,0,.2.1.4.1.5-.2,1.1-.4,2.1-.4"/>
        <path id="Fill-42" class="cls-3" d="M866.9,32h.7c.4-.1.8-.2,1.2-.2h-1.9v.2Z"/>
        <path id="Fill-44" class="cls-3" d="M154.9,69.9c-.7-.5-1.1-1-1.4-1.4.3.9-5.1,0,1.4,1.4"/>
        <path id="Fill-46" class="cls-3" d="M1398.3,13.2c-.2.3-.6.4-1.1.4h1.2s.2-.3,0-.4"/>
        <path id="Fill-48" class="cls-3" d="M903.5,35.2l-5.8.7c1.6,0,3.7-.3,5.8-.7"/>
        <path id="Fill-50" class="cls-3" d="M419.9,100.8l-1.4.2c.5,0,1,0,1.4-.2"/>
        <path id="Fill-52" class="cls-3" d="M880.4,38.8c-1.1-.2-2.2-.3-3.4-.2-.2,0-.5.2-.6.4l4-.2Z"/>
        <path id="Fill-54" class="cls-3" d="M153.4,68.5h0"/>
        <path id="Fill-56" class="cls-2" d="M233.6,76.2c1.7,0,2.3.4,2.5.7-.8,0-1.8-.2-3-.4h-.2s.3-.3.7-.4M255.4,87.5c-1.3-.2-3-.5-4.7-.7-.3-.4.2-.8,1.2-.6-.7.2,1.9.8,3.5,1.3M244.4,85.9h0c-1.1,0-2.1-.3-2.7-.4.6,0,1.4.2,2.7.4M115,61.2c5.4,1.6,2.9-.7,4.3-1.2,6.6,1.3,2.7,1.9,4.7,3.2,4.2.7,7.6.3,10.6,1.1.2.3.7.5,0,.6,4.6,0,12.8,3.2,18.2,3,.3.2.5.4.6.5-.6-.9-.6-1.7-.3-2.2,2.5.6,4.8.2,5.5,1.4-1.5-.4-1.7,0-2.5,0l2.7.2c2,1.9-3.6-.4-3.9.6,2.6.4,5.4.7,8,1s5.1.7,7,1.3c.5,1.5-9.1-1.6-4.2.7-2-.6-3.9-1.2-5.8-1.9,4.1,3.2-3.6-1,.1,2.2,7.8,2.2,9,1.3,16.7,3.5,1.9-.3-.3-1.2,1.6-1.6,11.5,1,8.1,5.2,16.7,5.2,2.3-.5,3.5-2,9.2,0l-2.3,1.1c7.6,1.6,4.8-1.3,12.6,1.2-1.5.4-6.1-.6-5-.2,5,2.2,3.8-.2,7.8.6l.6,1.5c4.1.6,8.5,1.1,12.9,1.6,4.5.4,9,.9,13.6,1.5-.6.3-2.2.5-.1,1.2,11.6,1.1,24.5,3.8,35.5,6l4.4-.6c1,0,1.8.8.7.9,4.3,1,.3-.7,2.4-.9,2.5.2,3.2,1,1.6,1.2,3.9,0,9.4,0,14.9.3s11.1.8,15.1,1.8l-1.6.2c3.1.5,5,0,6.7-.3,1.8-.4,3.5-.7,6.3,0h-1.1c6.8.8,14,1.3,20.8,1.7s13.2.9,18.4,2c2.1-1.6,13.5,1.2,14.5-1.1,3.9.7,5.3,1.2,7.1,1.6,1.8.4,4,.7,9.5,1.1,2.9,0,4.4-1.4,8-1.6v1.2c1.8-.4,3.4-.8,5-1.3l2.6,1.4,3.4-.4c-1.4,0-2.9-.5-2.7-.9,5.3-.6,13,.7,13.2,1.3,4.2-.4,8.4-.8,12.6-1.3-.3.5-2.4.8-4,1.1,6.7-1.4,1.3,1.3,7.4,0-.8-.2.4-.8.6-1,3.1.6,10.1.4,15.3-.2l-1,.9c2.3,0,4.7,0,7.2-.3,2.4-.2,4.9-.4,7.5-.6,5.1-.4,10.3-.9,15.5-1.3-3.8-.2-3-1.7,0-2l1.3,1.2c1.9-.9-3.2-.3.8-1.5,3.9,0,2.7,1.3.5,1.9,1.6-.2,3.1-.5,4.7-.8.3.4-.8.7-1,1.2,1.9-1,8.3.6,11-1l.3.4c5.2-.4,9-.9,12.6-1.3,3.5-.4,6.8-1,11.1-1.4,0-1.1,3.4-1.2,5.8-2.4,3.1-.2,6.5-.2,10-.3,3.5,0,7.1-.4,10.9-.9,5.2-1.2,1.4-1.1,3.7-2.1.5,1,8,0,4.2,1.2,4.5-.6,7.4-1,10.5-1.6,3.2-.6,6.6-1.3,12.2-2.5-1.3-.2-2.7-.2-2-.7,2-.5,4.8-.2,4.5.3l-.5.2c3.1-.8,6.6-1.3,10.1-1.6,3.5-.3,7.2-.5,10.7-.7,7.1-.4,13.9-.8,18.8-2.7l-.5.2,10.3-2.8c4.9-.6-2.8,1.2.9,1.3,11-3.5,17.9-2.7,27-5.4,3.9.9,10.2-.3,16.9-1.6,6.7-1.4,13.6-2.9,18.6-2.8l-.7-.6c2.4-1.1,3.1,0,5-.3-.4-.5-2.8,0-1.3-.8,21.1-4.6,44-6.9,65.9-10.2,8-1.2,3.9-4.4,14.2-4.6l-2.6,1.8c7.9-2.2,16.1-3.7,24.3-5.1,8.2-1.4,16.3-2.8,24.1-4.8-.9.5-.8.9-2.4,1.1,3.5.4,12.3-2,12.2-2.8,2.5-.3.7.6,2.3.7,3.4,0,8.2-2.6,10.1-2,.3,0-.9.5-1.5.6,2.1-.8,10.2-1.5,7.9-2.3,6-.4,11.2-2.3,16.1-2.4,2.9-1.7,10.2-1.1,10.9-2.9,0,1.9,10.6,0,14.2-1.6-1.2.7,3.3,0,2,1,4.3-.7,8.1-1.6,7.2-2.4,8.2.9,15.6-4,20.4-1.9,6.3-1.4,12.3-2.7,18.3-3.8,5.9-1.1,11.7-2.1,17.4-3.1-.2,1.8-12.6,1.8-11.9,3.6,10.8-2.1,16.8-4.5,27.7-5.4,2.8-.1-1.5,1-2.4,1.4,10.8-2,21-2.2,30.6-4.3,0,.2-1,.5-2,.7,1.9-.3,4.5-.2,4.2-1l-1.8.4c-3.2-.9,7.3-3.3,7.6-3.9-3,2.7,9.6-.4,4.8,3.1,1.2-.3,2.8-.8,2.4-1.3,1.9,0,2.5.2.7,1,6.8-1.1,4.3-1.7,10.5-2.3,0,.4-1.2.7-1.8,1.2,3.1-1.1,6.1-2.2,11.4-2.3-.3.3.3.5-1.2.7,9-.9,15.2-3.3,25.1-3.4-2.8,2,3.4.3,4,1.7l5.3-.9-2.2-.5c4.7-.4,8.7-1.7,12.7-1.5l-3.4.8,8.7-.9-5-.2c4.7-1.1-.6-1.9,5.6-1.8-1.3.2,4.7-.3,7.2.4h0c2.3-.6,4.6-1.3,8.1-1.1.9.4-.6,1.7,0,2,2.2-1.4,10.9-.9,13.7-2.4-.9.4-1,1.1-.6,1.3l1.9-1.1c2.2.2,2.5.4,2.2,1,6.5-.1-2.2-1.8,5.6-1.3-.6,0-.3.2-1.6.5,7.8,0,15-1.4,22.1-1.1,1.1.7-.5.9-2,1s-3,.2-1.8.8c10.3-.6,21.2-2.4,31.2-2.4h-1.9c1.3-2.2,7.4.7,12.4-.4-1.2.2-1.6,1.2-1.3,1,6.8.3,13.9-.7,24.2-1.4l-1.3.6c4,.5,10.6.2,14.9.4,1.3-.5,3.8-.4,2.3-1.2,13.4,3.2,25.5-1.4,37.4,1.3-1.4,0-3.4.4-2.3.4,3.4,0,6.7-.2,10.1-.2-.8-.9-1.3-.6-3.4-1.4,1.3-.5,4.2-.9,6.7-.8-4.6.5,0,1.5,2,2.1-.3-.3.4-.6.2-.9,5.2,1.8.9-1.8,8.1-.5l-.4.5c2.7-.2,5.2-.7,8.1-.5,1.2,1.1-2.9.4-3.1,1.3,4.1,0,8.1-1.8,11.8-.6-1.7.2-4.2.2-6,.4,4,1.4,4.5,1.1,7.4,1.4h-.3c2.3.2,4.6.6,6.9.9l-1.7-.4c5.2-2.5,10.4,0,17.4-1.5-6.8,1.4-1.2.9-1.7,2.1,1.7.4,4.4.9,3.6,1.2,3.3-.8,5.4,1,10.1-.2.2.4,3.5.2,2.7,1.1,4.2-.1-1-.7-.6-1.2,6.6-1.1,15.2,2.5,24.7,1.3,8.1-.2,9.7-1.4,17.3-1.5,2.5.8-2.2,1.3-2.2,1.3,4,.9,7.1,1,11,.8-.8.3,0,.6,1.1,1.2,3.1.2,2.2-1.2,6.2-.3-.7.4-1.7,1-3.2,1.3,3.7,0,7.3-.4,11.1-.5.9.8-2.4.8-3.7,1.2,4.2.1,11,.4,12.4-.6l-2.7-.6c1.5.1.7,1-.4,1.1-3.7.5-5.2-.8-5.4-1.2h2.7c-2.6-2.5-10.8-.6-16.2-1.2l2.4-1.5c-1.9.3-3.8.6-5.6.9-1.1-.5-1.9-1.5.8-1.6-3.8-1.1-3.5.4-6.7-.8-.4-.2-.2-.2.2-.3l-3.8.2c.8-.3-.5-1.2,1.8-.8-6.7-1.4-11,.5-13.5-.9h.6c-9.5-.2-1,1.1-8.2,2l-4.6-3.3-1,1.2c-1,0-2.9-.3-2.5-.8-3.7.6.6.6-1.6,1.2-1.2-.4-2.5-.6-4-.7-1.4,0-2.9,0-4.3-.2-2.8,0-5.1-.3-5.6-1.3-1.7.8,4.4.9-.6,1.3-1.3-2.2-5.8,0-10-1.1,1.4-1,5.4-.2,1.2-1.4-2.7,1.7-8.3-.8-12-.6,0,.7-2.1.8-4.8.7-2.7,0-6.1-.4-9.2-.2.4-.5-11.4-1.1-17-1.8l.2-.2c-1.1,1.4-7,1-11.2,1.2.2-.9,1-1.2,3.3-1.5h-4c-1,.3-2.2.6-4.8.6l1-1.1c-5.3-.1-10.7,1.1-17.5.3-.4,1,5.4,2.9-1.8,3.5-.3-.6-.5-1.5,1.4-1.7-.6,0-2.2.4-3.5.2l2.9-.9c-3.1-.4-1.6.8-4.1.7,0-.8-1.8-.6-1.5-1.2.6-.1,2.2.3,3.1,0-2.8-.2-6.2-.7-7.3-1.3.2.5,0,1.1-2.1,1.1-5.3,0-1.8-1-4.9-1.4-1.3.5-4.7,0-4.8,1.1-1.6,0-1.8-.6-2.4-.9-2.7.4-12.8.2-9.7,1.5h.7s-.3,0-.4.2h0c-9,1.3-18.7-.5-27.6,0v-.4c-1.3.1-2.7.2-4.2.3-1.4,0-2.9.2-4.2.3-2.8.2-5.4.4-7.2.9-1.6,0-3.7-.6-3.1-1.1-4.1.4-4.5.9-10.4.4,4.1-.8-1.4-.6,4.2-.6-5.3-.2-6.5-.8-12.2.5,1.9-1.1-4-1.2-6.5-.8,1.2.2,2.5.4,3.7.6-2.8.2-5.3.3-7.8.3l1.3-1.4c-10.9-1.1-19.4,3.7-27.8,1.4-2.8,1.1,5.9.4,3.4,1.6-2.5,0-5.1-.4-7.2-.8-2.1-.4-3.9-.7-4.6-.7-6.9-.3-6.2,2.4-13.4,2.3.9.4,1.9,1.6-3.4,2.4-5,.2-6.3-1.6-3.1-2.2,1.2,0,1.8,0,1.7.2,1.6-.3,3.7-.6,1.7-1l-.6.5c-2.5-.3-9.4.2-7.8-.7-3.7.7-1.6.9,1.3.9-3.2,0-5.7,0-8.2.2s-5.1.5-8.4.5c1.1.2,2.1.7,1,.7-9.7.2-4.2,1.2-10.7,2-3.8-.4,1.2-1.8-5.3-.7-4.1-.2-1-1.2.6-1.7-5.9,1.4-11.3.3-14.7.5l3.1-.7c-1.9.4-3.4.6-5,.7l1.9.8c-1.9,0-3.4.2-3.4-.2-1.8.8,1.6,1.4-2.1,2.6-2.5-.2-7.5,1.3-8.4.1,7.8-.3-1-1.2,5.6-2-1.3.3-2.8.4-4.7.4-.3-.1.2-.3.7-.4-7.5-.4-3.3,1.8-11,2.5.9-.8-1.9-1.2-3.2-.9,3.1-.3,1.6,1-1.2,1.9-5-.1-5.3,1-7.9,1.2h3c-.9.7-3.4.9-6.8,1.5-.4-.5,3.1-.7,1.8-.8-3.7,1.7-8.8-.3-14,1.1-2.5-.2-.4-1.3-2.6-1.4-5.8,1.6-6.6-.3-12.7,1.3,1.9.7,2.2.4-2.1,1.9l5.1-1,5.1-.9c-2.1.7-4.3,1.4-6.4,2.2,3.1-.4,6.5-1.4,8.4-1.4-3.1,1.1-2.8.9-1.2,1.5-4.4-1-8.3,1.8-13.3,1.5v-2.4c-7.6-.1-13,2.9-22.7,3.5h3.1c-1.2,1.1-5.9.9-8.9,1.7.2-.8-1.8-.8-3.2-1.1.2.6-7,.9-7.6,2.6l-4.4-.4c-7.8.7-8.5,3.4-15.9,4.3,2.1-1.2-1.3-1.2,3.5-2.6-2.5.4-4.7.6-4.7,1.1-1.5-.3-6.7,2.1-9.1,1.7-1,.5-1.2,1.4-4,1.7-.3-.1,0-.4,0-.4,0,.4-4.3,1.2-1.7,1.7-4-.6-9.3.2-14.5,1.1s-10.2,1.9-13.7,1.4c-5.3,1.1-11.8,2.4-16.7,3.3.3-.3,0-.4.9-.5-6.9.4-3.8,2.9-11.6,3.4-4.1-.6,4-1.4,1.4-1.4-1.5-2.4-9.2,1.9-14.6,1.3l1.2-.4c-4.1-.2-9.4,2.6-15.9,3.6,0,0,.3-.3,0-.4-4.2,2.1-12.4,4-18.5,5.4,1.7-1.3,2.7-1,1.4-1.8-2.7.6,1.1,1.5-4.4,2.8-1.9-.2-6,0-6.7-1l5.2-1c-2.9-.9-6.7,1.3-9.5,1.5l.2-.7c-8,1.6-7.8,3.2-16.4,4.6l1,.3c-4.4,2.4-4.1,0-8.6,1.8l-1.7-1.3c-3,.9-10.6,3.5-16.1,4.8,2.9-1.7,9.3-3.5,13.2-4.9-3.1.5-10.4,2-11.9,3.1,1.2-.4,2.7-1,4-1-3.5,1.9-8.4,3.4-14.5,4.5.5-3.2-16.1,2.1-20.9.6-10.6,3-21.5,3.4-34.1,5.7,4.9,1.6-3.7.7-2.5,3-2.9.7-4,.8-4.3.7h-9.2c-2.2-.2,2.7-.9,2.3-1.4-6.5.9-2.9-.5-7.2-.5,1,.7-2,1.6-5.8,1.9l5.4.3c-8.8,2.8-8.1-.8-17,2l2.7-1.2c-2.3.6-6.6,1.3-10.8,2.2-4.3.8-8.5,1.9-10.6,3.2-.9-.2-2.1-.6,0-1.1-5.6.7-11.7,2.2-17.5,3.4-5.8,1.2-11.4,2.3-15.8,2.3l.8-.7c-2.1.5-3.5,1.6-6.2,1.4,0-.3.8-.7-.2-.6-1.1.4-5.4,1.8-8.2,1.8l2.3-1c-11,.6-16.5,3.7-25.6,5.2-.2-1.8-8.8-1.4-13.1-1.2v-.3c-3.1.3-6,.7-8.8,1.1-1.4.2-2.8.4-4.1.7-1.3.2-2.7.5-4,.7-5.2.9-10.4,2-16.2,2.8-1.9-.3-4.4-.4-7.2-.3-2.9,0-6.1,0-9.5.3-3.4.2-6.9.3-10.3.5-3.4,0-6.7.3-9.7,0,1.8.2-.2,1.4-2.3,1.6-2.8-.2-7.6,1.5-7.2,0h1c-2.1-1.5-7.8-.9-12.2-.7l-.7,2.1c-2.9-.6-6.3-.9-9.8-1-3.5,0-7.1.2-10.6.4-3.5.2-6.8.4-9.6.4s-5.2-.3-6.8-1c-2.8.5-6.3.5-9.1,1l.2-1.1c-7.8-.3-11.6-.7-21.2-.7l2-.7c-5.4-.3-7,3.1-12,2.9l-1.4-1.8c-4.7-.2-9.4-.8-14.2-1.3-4.7-.4-9.4-.8-14.1-.4.2-.2.5-.7,2-.7-2.2-.2-6.5-.8-10-1-3.5-.3-6.3-.3-5.6,1,0-1.5-9.7-1-14.8-.8l.9-1c-4.4,1-4.6,1.3-10.6,1.1-1.4-.3-1.1-1,.7-.5-4.7-1.1-3.8.6-9.5-.6l2.2-.5c-4.9-.6-4.5-.2-7.3.3-3.1,0-9.2-1.5-9.8-2.5-.7.5-3.5,1-6.3.3-.3-.4.7-.5,1.3-.6-8-1.9-12.2-.5-17.6-2.3-.1-.4-.4-.6-.8-.8,6.4,1,11.6,1.8,11.1,1.8.1-1-5-2-.7-2.8-4.3,0-11.7.8-16.6-.5-.2,0-.5-.3-.6-.5h.5c-1.1-.3-2.2-.4-3.2-.4-1.6-.4-2.6-.7-4.1-1-.5-.9-5.9-1.4-8.4-1.9,0,1.1-3.3.4-.3,1.8-.4-.2.5,0,2.2.2h1.1-.2c1.7.3,3.9.6,6.4,1-2.1.2-4.4.4-7.1-.7-1.4.5-3,.9-3.9,1.1-3.3-2.2-9.9-4.2-10.7-5.3-4-.4-8.6-1.2-12.9-1.8-4.3-.5-8.3-.8-11-.4-2.3-.2-2.4-1.1-3.2-1.6,1.3,0,2.8.4,3.6.3-4.6-.4-13.2-2.6-14.6-1.4-5.4-1.9,3.4-.6-4.3-2.1l1.1-.2c-3.6-1.4-7-2.3-10.4-2.8-3.3-.6-6.5-.9-9.8-1.2-6.5-.7-13.2-1.6-21.2-5.2,1.1.5,1.7.7,1.8,1-18.6-6.2-39.3-9.5-57-17.5-5.1-2.1-6-1.4-9.4-1.7l-1.2-2.1-5.9-.5c-8-1.7-12.3-7.4-22.6-9.1l1,1.2c-3.4-1.4-11.1-3.6-10.2-4.3-.4,0-1.4.4-2.6-.6v-.6c-2.9-.7-5.8-1.5-8.7-2.3-6.3-3.1,1.9-1.9-7.5-5.9-3.6-1.2-10.7-2.6-9.5-1.6,1.4.7,3.4,1.9,3.3,2.6l-3.3-1.1c-.7.7-1.8,1.2-1.9,2.2,0,1.3,1,2.7,4.7,5,2,.4,4,.9,6,1.3l1.5,1.6-4.7-1.9c2.3,1.9,4.3,1.9,6.4,2.2.3.6.9,1.3,2,1.9l6,.4c.4.9-3,.4.6,2.2,2.9.2-1.9-2.5,2.6-1.3,2.4,1.8,1.4,2.2,4.8,2.7.3.6-.5.6-1.8.4,3,.6,7.5,2.6,9.3,2.2,2.4,2,9.6,3.2,8.8,4.8,1,0,5.5.4,8.1,1.3-2.7.2-.3,1,2.6,2.1,2.9,1,6.2,2.2,5.2,3.1,4.1-.6,13.1,3.4,19.7,4.4-.4,0-1.2,0-1.7-.2,3.5,1.3,4.4,2.1,6.5,3.2.9-1.3,6.6,0,9.8,0,3.9,2.7-3.2,1-2.2,2.8,0-1.3,8,1,6.8-.4,3.1,1.9,2.7,1.3,4.1,3,1.1-1.7,3.2.6,6.3.2,4.6,2.3.8,2.1,6.2,3.1,1.2.6.6.8-.4.8-1.1-.3-2.3-.5-2.3-.5"/>
        <path id="Fill-59" class="cls-3" d="M230.2,77.2h-.7c.3.2.7.3,1,.4.2,0,.5-.2.7-.2-.3,0-.7-.2-1-.2"/>
        <path id="Fill-61" class="cls-3" d="M1222.1,2h-.2c.2,0,.4,0,.5.2,0,0-.2-.2-.3-.2"/>
        <polygon id="Fill-63" class="cls-3" points="407.5 101.4 407.5 101.1 406.5 101.3 407.5 101.4"/>
        <path id="Fill-66" class="cls-3" d="M1282.8,6.5s.3.2.8.3c0,0-.4,0-.8-.3"/>
        <path id="Fill-68" class="cls-3" d="M1309,7.5c1.2.2,2.5.4,3.7.6-1.6-.3-2.8-.5-3.7-.6"/>
        <path id="Fill-70" class="cls-3" d="M1329.1,9.1c.3-.2.3-.3.4-.5h0l-.4.5Z"/>
        <path id="Fill-72" class="cls-3" d="M1009.4,20c-.3,0-.5.1-.8.1-1.8.5-.5.2.8-.1"/>
        <path id="Fill-74" class="cls-3" d="M1104.2,9.3c-1,.3-2,.5-3,.7,1.6,0,2.9-.1,3-.7"/>
        <path id="Fill-76" class="cls-3" d="M904.1,35.2h-.6.6Z"/>
        <path id="Fill-78" class="cls-3" d="M1096.7,10.3c1.7.1,3.1,0,4.4-.3-1.4,0-3,0-4.4.3"/>
        <path id="Fill-80" class="cls-3" d="M1416.2,15.5h1-1.1,0Z"/>
        <path id="Fill-82" class="cls-3" d="M1417.3,15.5h1.1c-.5-.1-1-.2-1.1,0"/>
        <path id="Fill-84" class="cls-3" d="M1420.6,15.3h-2.3c.8.2,1.8.3,2.3,0"/>
        <path id="Fill-86" class="cls-3" d="M1389.6,12.7l-.3.4c.2,0,.3-.2.3-.4"/>
        <path id="Fill-88" class="cls-3" d="M1381.5,12.3c1.9.2,4.8,1.2,7.5,1.1l.3-.3c-1.3.6-5.9-1.4-7.8-.8"/>
        <path id="Fill-90" class="cls-3" d="M1348.1,5c2.3.2,4.5.4,6.8.7-1.2-.5-2.7-1.2.4-1.1-8.5-1.8,1.7,1.1-7.2.4"/>
        <path id="Fill-92" class="cls-3" d="M1327,3.4c3.7,0,0-.6.2-.9-2.3.3-2.9.4-.2.9"/>
        <path id="Fill-94" class="cls-3" d="M1174.5,1.8l.3-1c-2.8.2,0,.4-.3,1"/>
        <polygon id="Fill-96" class="cls-3" points="1145.5 8.1 1148.3 8.6 1149.6 7.6 1145.5 8.1"/>
        <polygon id="Fill-98" class="cls-3" points="1128 1.7 1129.2 1.4 1124.6 2 1128 1.7"/>
        <path id="Fill-100" class="cls-3" d="M873.3,30l1,1.1c1.9-.5,2-2-1-1.1"/>
        <path id="Fill-102" class="cls-3" d="M764.5,50.1c-1.3-.4-4.4-.2-6.2.7,2.5-.4,5-.3,6.2-.7"/>
        <polygon id="Fill-104" class="cls-3" points="436.7 91 438.9 90.5 434.8 90.9 436.7 91"/>
      </g>
    </g>
  </g>
</svg>