<?xml version="1.0" encoding="utf-8"?>
<!-- Generator: Adobe Illustrator 25.2.1, SVG Export Plug-In . SVG Version: 6.00 Build 0)  -->
<svg version="1.1" id="Layer_1" xmlns="http://www.w3.org/2000/svg" xmlns:xlink="http://www.w3.org/1999/xlink" x="0px" y="0px"
	 viewBox="0 0 1440 44.5" style="enable-background:new 0 0 1440 44.5;" xml:space="preserve">
<style type="text/css">
	.st0{fill:#FFFFFF;}
	.st1{fill:#28B99A;}
</style>
<g>
	<polygon class="st0" points="0,0 1440,0 1440,40.5 1174.1,37.5 405,25 0,36 	"/>
</g>
<g>
	<path class="st1" d="M1101.3,39.3l-2.1,0.2c-0.1-0.1-0.2-0.1-0.3-0.2c-0.1,0.2-1.2,0.3-2.4,0.5
		C1098.7,39.8,1101.4,40.2,1101.3,39.3z"/>
	<path class="st1" d="M1440,40.6v-3.5c-0.7-0.1-1.4-0.1-2,0c-0.3,1.5-8.6,0.6-15.2,1c0.4-0.5-12.4-0.9-18.5-1.5l0.2-0.2
		c-1.3,1.5-7.6,1.2-12.3,1.4c0.2-0.9,1.1-1.2,3.6-1.6l-4.3,0c-1.1,0.5-2.4,0.7-5.3,0.9l1.2-1.1c-5.8,0-11.7,1.2-19.1,0.4
		c-0.5,1,5.7,3-2.2,3.6c-0.2-0.6-0.5-1.5,1.6-1.7c-0.7,0.1-2.4,0.4-3.8,0.2l3.2-0.9c-3.4-0.4-1.8,0.8-4.5,0.7c0.1-0.8-2-0.6-1.5-1.2
		c0.7-0.1,2.3,0.4,3.4,0c-3-0.2-6.7-0.7-7.9-1.3c0.2,0.5-0.1,1.1-2.3,1.2c-5.8,0-1.9-1-5.2-1.4c-1.4,0.5-5.1-0.1-5.3,1.1
		c-1.7,0-2-0.6-2.6-0.9c-3,0.5-14,0-10.7,1.3l0.8,0.1c-0.1,0-0.3,0-0.5,0c-9.9,1.1-20.3-0.9-30.1-0.5l0.1-0.4
		c-5.9,0.4-12.9,0.1-17.2,0.9c-1.7,0-4-0.8-3.2-1.3c-4.5,0.2-5,0.7-11.3,0c4.5-0.6-1.5-0.6,4.6-0.5c-5.7-0.4-6.9-1.1-13.3,0
		c2.2-1-4.2-1.3-6.9-1.1l3.9,0.8c-3.1,0.1-5.8,0-8.5-0.1l1.7-1.3c-11.5-1.8-21.6,2.5-30.2-0.4c-3.3,0.9,6.3,0.8,3.4,1.8
		c-5.4-0.3-10.8-2.3-12.5-2.3c-7.3-0.9-7.2,1.9-14.9,1.2c0.9,0.5,1.7,1.8-4.2,2.2c-5.4-0.3-6.4-2.1-2.9-2.5c1.3,0,1.9,0.1,1.8,0.3
		c1.8-0.1,4.1-0.3,2-0.9l-0.8,0.5c-2.6-0.5-10.1-0.6-8.2-1.4c-3.6,0.3-2.4,0.7-0.1,0.9c-6.1-0.6-10.1-0.1-16.7-0.6
		c1.1,0.3,2,0.9,0.9,0.8c-10.4-0.8-4.8,0.8-11.9,0.9c-3.9-0.8,1.8-1.7-5.5-1.2c-4.3-0.6-0.7-1.3,1.1-1.7c-6.7,0.8-12.1-0.8-15.8-1.1
		l3.5-0.3c-2.1,0.2-3.8,0.2-5.5,0.1l1.8,1c-2-0.2-3.7-0.2-3.6-0.6c-2.2,0.6,1.3,1.6-3,2.4c-2.6-0.5-8.3,0.4-9-0.9
		c7.6,0.5,0.9-1,4.9-1.3c-1,0-2.2,0-3.5-0.2c-0.3-0.1,0.3-0.3,0.9-0.3c-7.9-1.3-4,1.4-12.4,1.2c1.2-0.7-1.7-1.4-3.1-1.3
		c3.4,0.1,1.4,1.2-1.8,1.7c-5.3-0.7-5.9,0.3-8.7,0.2l3.2,0.3c-1.2,0.7-3.9,0.6-7.7,0.7c-0.1-0.2,0.2-0.3,0.7-0.3
		c-4,0.4-8.3-1.7-13.6-1c-2.6-0.5,0-1.4-2.3-1.7c-6.7,0.8-6.8-1.1-13.8-0.5c1.8,1,2.2,0.8-2.8,1.6l11.4-0.5L1064,32
		c3.4,0.1,7.3-0.5,9.3-0.3c-3.6,0.7-3.2,0.5-1.7,1.3c-4.4-1.5-9.4,0.7-14.6-0.4l0.7-2.4c-7.8-1.2-14.6,1-24.9,0.1l3.3,0.5
		c-1.6,0.9-6.5,0-10,0.3c0.5-0.8-1.6-1.1-2.9-1.7c0,0.6-7.7-0.2-9,1.4l-4.4-1.2c-8.4-0.6-10.2,2.1-18.2,1.6c2.6-0.8-0.9-1.5,4.7-2
		c-2.7-0.1-5.1-0.3-5.3,0.3c-1.5-0.5-7.8,0.9-10.1,0.1c-1.2,0.3-1.8,1.2-4.8,1c-0.2-0.1-0.1-0.2,0-0.3c-0.7,0.3-4.6,0.4-2.3,1.3
		c-7.8-2.7-23.4-0.3-30.2-2.7c-6,0.1-13.2,0.2-18.6,0.2c0.4-0.2,0.1-0.4,1.1-0.3c-7.2-0.9-5.1,2.2-13.4,1.2c-4-1.4,4.7-0.6,2.1-1.2
		c-0.5-2.7-10.3,0.1-15.6-1.6l1.4-0.1c-4.1-1-10.8,0.8-17.9,0.4c0,0,0.4-0.2,0.1-0.4c-5.2,1.2-14.5,1.5-21.4,1.7
		c2.4-1,3.2-0.5,2.2-1.6c-3.1,0.1,0.5,1.7-5.7,1.9c-1.8-0.6-6.1-1.2-6.5-2.3l5.8,0.1c-2.6-1.5-7.5-0.1-10.5-0.4l0.5-0.6
		c-8.9,0-9.4,1.6-18.9,1.3l0.9,0.5c-5.6,1.5-4.1-1-9.6,0.1l-1.2-1.6c-3.5,0.3-12.4,1.3-18.6,1.4c3.8-1.1,11.1-1.6,15.7-2.2
		c-3.4-0.1-11.6-0.1-13.5,0.6c1.4-0.1,3.2-0.5,4.5-0.2c-4.5,1.2-10.1,1.7-16.9,1.5c1.9-3.1-17.5-1.2-21.8-3.7
		c-12.2,0.9-23.7-1-37.7-1.1c4.4,2.5-4.1,0-3.8,2.5c-3.3,0.1-4.5,0-4.8-0.1l-9.5-1.7c-2.2-0.8,3.2-0.5,3-1c-7.1-0.3-2.8-1.1-7.4-1.9
		c0.8,0.9-2.7,1.2-6.7,0.8l5.5,1.3c-10.2,1.1-8.2-2.2-18.5-1.1l3.3-0.7c-5.2,0.4-19-0.4-24.5,1.5c-0.9-0.3-1.9-1,0.4-1.1
		c-12.3-0.5-27.8,1.7-37.2,0.3l1-0.6c-2.3,0.1-4.2,1.1-7,0.4c0.2-0.2,1-0.6,0-0.6c-1.3,0.2-6.3,1-9.3,0.6l2.7-0.6
		c-11.9-1-18.7,1.4-28.9,1.7c0.3-1.8-9.1-2.5-13.8-2.8l0.2-0.3c-14-0.4-24,1.2-37.1,1.8c-7.9-2-27.2-1-40.1-2.2
		c2,0.3-0.4,1.4-2.7,1.6c-3-0.4-8.5,1.2-7.9-0.5l1.1,0c-2.2-1.6-8.5-1.2-13.4-1.3l-0.9,2.2c-12.7-3.2-33.5,1.1-40.4-1.8
		c-3.1,0.5-6.9,0.5-10,1.1l0.2-1.2c-8.6-0.3-12.8-0.4-23.4-0.1l2.1-0.8c-6-0.1-7.4,3.4-12.9,3.4l-1.7-1.7c-5.2,0-10.5-0.3-15.7-0.5
		c-5.2-0.1-10.4-0.1-15.5,0.8c0.1-0.3,0.4-0.8,2.1-0.8c-4.7,0-18.1-0.9-17.2,1.1c-1.3-1.1-10.9,0.2-16.1,0.9l0.7-1.1
		c-4.6,1.5-4.7,1.9-11.2,2.4c-1.6-0.1-1.5-0.9,0.6-0.6c-5.3-0.5-3.9,1.1-10.3,0.6l2.2-0.8c-5.4,0-4.9,0.4-7.7,1.3
		c-3.3,0.5-10.2-0.1-11.2-1.1c-0.6,0.6-3.4,1.5-6.6,1.3c-0.5-0.4,0.6-0.6,1.2-0.8c-9.1-0.6-13.1,1.5-19.5,0.5
		c-0.2-0.4-0.6-0.6-1.2-0.7c6.6-0.1,12-0.1,12.4-0.1c-0.3-1-6-1.1-1.7-2.6c-4.5,0.9-12.1,2.7-17.8,2.3c-0.3-0.1-0.6-0.2-0.8-0.3
		l0.6-0.1c-1.3-0.1-2.5,0.1-3.5,0.3c-1.8-0.1-3-0.2-4.7-0.2c-0.9-0.8-6.7-0.3-9.6-0.3c0.5,1.1-3.3,1,0.5,1.9
		c-0.5-0.1,0.5-0.1,2.4-0.2c0.4,0,0.9-0.1,1.2-0.1c0,0-0.1,0.1-0.2,0.1c1.9-0.1,4.3-0.2,7.1-0.3c-2.1,0.6-4.4,1.2-7.7,0.6
		c-1.3,0.8-2.7,1.6-3.6,1.9c-4.3-1.5-12.1-2.2-13.4-3.1c-8.6,0.9-20.6,0.9-25.4,3.3c-2.4,0.4-3-0.5-4.1-0.8c1.4-0.3,3.1-0.3,3.8-0.6
		c-4.8,0.7-14.7,0.7-15.4,2.2c-6.5-0.5,3.1-1.5-5.5-1l1-0.5c-17.5-1.8-25.8,4.4-44.9,2.5c0.7,0.1,1.2,0.2,1.4,0.3
		c-10.9-0.2-21.8,0.6-32.6,1.2c-10.9,0.6-21.6,1.4-32.6,0.9C63.2,29,63,30,59.8,30.9l-2-1.1l-5.4,1.7c-8.2,1.5-17-2.2-26.9,0.5
		l1.9,0.7c-4.1,0.1-12.3,1.3-12.2,0.3c-0.3,0.2-0.8,0.9-2.6,0.6l-0.5-0.6L3,34.6c-1.5,0-2.4-0.1-3-0.2v5.9l1.7,0.5L0,40.9v0.4
		c1.3-0.2,2.2-0.6,3.2-1c0.8,0.4,1.9,0.7,3.3,0.8l5.1-2.2c1.2,0.7-1.8,1.6,2.6,1.8c2.4-1-3.9-1.5,0.6-2.3c3.6,0.7,3.1,1.4,6.2,0.5
		c0.8,0.4,0.2,0.8-1,1.1c2.8-0.8,8.2-0.8,9.3-1.9c3.8,0.8,10.6-0.9,11.3,0.8c0.7-0.5,4.8-1.7,7.7-1.9c-4.1,2.4,11.1-0.4,10.9,1.9
		c2.9-2.1,13.8-1.6,20.3-3c-0.3,0.2-0.9,0.5-1.6,0.5c4,0,5.5,0.5,8.2,0.7c-0.3-1.6,5.7-2.3,8.5-3.4c5.6,1.3-2,2,0.2,3.4
		c-0.9-1.3,7.8-1.7,5.6-2.7c4.2,0.8,3.4,0.3,6,1.6c-0.3-2,3.3-0.5,5.8-1.8c5.8,0.7,2.2,1.8,7.9,0.9c3.1,0.5-1.9,1.4-1.9,1.4
		c6-0.2,2.2-1.6,3.1-2.5c7-0.7,3.8,1,6.6,1.6c4.3-0.6,7.2-2.1,10.6-2.2c0.4,0.2,1,0.3,0.4,0.6c4.3-1.4,14.1-0.7,19.1-2.3
		c0.5,0.1,0.7,0.2,0.9,0.3c-1.2-0.7-1.6-1.5-1.6-2c2.7-0.1,4.7-1.1,6.1-0.2c-1.7,0-1.7,0.4-2.3,0.8l2.7-0.5c3.1,1.3-3.7,0.6-3.3,1.7
		c5.4-0.6,11.5-2,15.9-1.8c1.4,1.3-9.8,0.8-3.7,1.8l-6.8-0.3c5.8,2-4,0,1.4,2.2c8.8,0.1,9.4-1,18.2-0.9c1.7-0.8-1-1.1,0.7-1.9
		c11.9-1.8,10.7,3.1,19.2,1c2.1-1,2.5-2.7,9.2-2l-1.8,1.6c8.4,0,4.2-2.4,13.3-1.5c-1.4,0.7-6.5,0.7-5.1,0.8c6,1.1,3.8-1,8.2-1.1
		l1.3,1.4c8.9-0.4,18.5-1.7,28.4-2.2c-0.5,0.4-2.1,0.9,0.3,1.3c12.4-0.9,26.8-0.3,38.9,0.3l4.4-1.3c1.1,0,2.1,0.5,0.9,0.8
		c4.8,0.4,0.1-0.8,2.3-1.3c2.7-0.1,3.6,0.6,2,1c8.1-1.2,23.4-2.5,32.3-1.3l-1.7,0.4c6.9,0.4,7.5-2.5,13.9-1.5l-1.2,0.2
		c7.4,0.2,15.2,0,22.6-0.1c7.4,0,14.3,0.2,20,1c2.1-1.7,14.7,0.7,15.6-1.7c8.5,1.2,6.1,1.6,18,2.4c3.2,0.1,4.7-1.5,8.7-1.7l0.1,1.3
		l5.4-1.3l2.8,1.5l3.7-0.3c-1.5-0.1-3.1-0.6-2.9-0.9c5.8-0.6,14.1,0.9,14.2,1.6l13.7-1c-0.2,0.4-1.6,0.6-3,0.8
		c5-0.7,0.3,1.5,6.5,0.4c-0.9-0.3,0.5-0.7,0.7-1c3.3,0.8,10.9,0.8,16.5,0.5l-1.1,0.9c10.1,0.3,21.4-0.3,32.7-0.1c-4-0.4-3-1.9,0.4-2
		l1.2,1.3c2.2-0.8-3.4-0.5,1.1-1.5c4.2,0.2,2.7,1.5,0.2,1.9l5.2-0.4c0.3,0.4-1,0.6-1.3,1.1c2.2-0.8,8.8,1.4,12,0l0.2,0.4
		c11.4,0.1,16.6-0.2,25.8-0.2c0.3-1.1,3.9-0.8,6.8-1.7c6.8,0.5,14.2,1.4,22.4,1.5c5.8-0.5,1.8-0.9,4.5-1.6c0.3,1,8.5,1.1,4.1,1.8
		c9.9,0,12.6,0,25.2-0.7c-1.3-0.4-2.8-0.7-1.9-1c2.3-0.1,5.1,0.5,4.7,1l-0.6,0.1c14.3-1.4,31.7,3.6,43.2,1.6l-0.6,0.1l11.8-0.9
		c5.3,0.3-3.3,0.7,0.5,1.4c12.8-1.5,19.6,0.6,30.1-0.3c7.3,3.2,28.2,0.4,38.5,2.6l-0.5-0.7c2.9-0.7,3.3,0.5,5.3,0.7
		c-0.2-0.6-2.9-0.7-1-1.1c23.7-0.3,48.1,2.1,72,3.4c8.7,0.4,5.9-3.6,16.6-1.6l-3.5,1.3c18.1-1.2,36.3,0.9,54-0.1
		c-1.1,0.3-1.2,0.7-2.9,0.6c3.4,1.1,13.6,0.4,13.8-0.4c2.7,0.2,0.5,0.7,2,1.2c3.6,0.7,9.6-1,11.3,0c0.2,0.1-0.3,0.2-0.9,0.3
		c3.2-0.2,10,0.3,8.2-0.7c6.4,0.7,12.6-0.2,17.7,0.6c3.7-1.2,11,0.9,12.5-0.9c-0.9,1.8,11.1,1.7,15.4,1c-1.5,0.5,3.5,0.7,1.7,1.4
		c4.7,0.1,9.1-0.2,8.5-1.1c8.2,2.4,17.8-1.4,22.1,1.5c14.2-0.7,27.3-1.1,40-1.3c-0.8,1.8-14-0.1-13.8,1.8c12.1-0.5,19.3-2,31.1-1.3
		c3,0.3-1.9,0.8-3,1.1c12.1-0.5,23.1,0.6,33.9-0.2c-1.7-1.1,8.2-2.1,9.5-2.8c-3.5,2.2,10.4,0.7,4.3,3.6c1.4-0.1,3.2-0.5,3-1.1
		c2,0.2,2.6,0.5,0.4,1.1c7.6-0.3,5.1-1.3,11.9-1.1c-0.1,0.4-1.5,0.5-2.3,1c3.6-0.7,7.2-1.5,12.9-1c-0.3,0.2,0.1,0.5-0.9,0.5
		c9.6,0,16.8-1.8,27.3-0.9c-3.5,1.7,3.6,0.6,3.9,2.2l5.9-0.4l-2.2-0.8c5.1,0.1,9.8-0.9,14.1-0.4l-3.9,0.6l9.6-0.1l-5.3-0.7
		c5.3-0.7-0.2-1.9,6.5-1.4c-1.4,0.1,5.1,0.1,7.6,1c2.6-0.4,5.3-0.9,9-0.5c0.9,0.5-1,1.7-0.5,2c2.7-1.2,12-0.2,15.4-1.5
		c-1.1,0.3-1.3,1.1-0.9,1.3l2.2-1c2.3,0.4,2.6,0.5,2.2,1.2c7.1,0.3-2-2,6.3-1c-0.7,0.1-0.4,0.2-1.8,0.4c8.4,0.5,16.5-0.4,24.2,0.2
		c2.1,1.6-6.9,0.3-4.4,1.6c11.3-0.1,23.5-1.6,34.3-1.1l-2-0.2c1.8-2.1,8,1.2,13.6,0.2c-1.4,0.1-1.9,1.2-1.5,0.9
		c7.4,0.4,15.3-0.4,26.6-0.9l-1.5,0.5c4.3,0.5,11.5,0.4,16.2,0.7c1.5-0.5,4.2-0.4,2.6-1.3c14.3,3.3,28-1.5,40.8,1.3
		c-1.5,0-3.7,0.5-2.5,0.5l11.1-0.4c-0.8-0.9-1.4-0.6-3.7-1.3c1.4-0.6,4.6-1,7.3-0.9c-5,0.6-0.1,1.5,2,2.1c-0.3-0.3,0.4-0.6,0.3-0.9
		c5.7,1.7,1.1-1.9,8.9-0.7l-0.4,0.5c3-0.2,5.7-0.9,8.9-0.7c1.3,1.1-3.2,0.5-3.4,1.4c4.5,0,8.9-2,12.9-0.9c-1.9,0.3-4.6,0.3-6.6,0.6
		c4.3,1.3,4.9,1,8.1,1.2l-0.3,0l7.5,0.6l-1.9-0.4C1433.4,40.6,1436.6,40.6,1440,40.6z M242.8,21.3c0,0-0.2,0.1-0.2,0.1
		c0.1-0.2,0.3-0.4,0.6-0.6c1.9-0.2,2.6,0,2.9,0.2C245.2,21.1,244.2,21.2,242.8,21.3z M255.5,28.6c0.6,0,1.4-0.1,2.9-0.2c0,0,0,0,0,0
		C257.2,28.5,256.2,28.6,255.5,28.6z M265.2,28.3c-0.5-0.4-0.1-0.8,1.1-0.8c-0.6,0.3,2.3,0.5,4.1,0.8
		C268.9,28.2,267.1,28.2,265.2,28.3z"/>
	<polygon class="st1" points="1098.9,39.3 1098.9,39.3 1098.9,39.3 	"/>
	<path class="st1" d="M1201.2,38.9C1201.2,38.9,1201.2,38.9,1201.2,38.9C1201.2,38.9,1201.2,38.9,1201.2,38.9L1201.2,38.9z"/>
	<path class="st1" d="M1137.7,39.7c-0.2,0-0.4,0-0.6,0C1137.3,39.7,1137.5,39.7,1137.7,39.7z"/>
	<path class="st1" d="M469.7,28.9c-0.4,0.1-0.9,0.1-1.5,0.2C468.7,29.1,469.2,29,469.7,28.9z"/>
	<path class="st1" d="M924.6,37.5c-0.4,0-0.7,0.1-0.9,0.1C923.9,37.5,924.3,37.5,924.6,37.5z"/>
	<path class="st1" d="M1094.2,32.6c-0.4,0.1-0.8,0.2-1.2,0.2C1093.9,32.7,1095,32.7,1094.2,32.6z"/>
	<path class="st1" d="M1125.1,30.8c0.6,0,1.1,0,1.6-0.1C1126.1,30.7,1125.5,30.7,1125.1,30.8z"/>
	<path class="st1" d="M976,30.4c0,0-0.1,0-0.1,0.1C976,30.5,976,30.4,976,30.4z"/>
	<path class="st1" d="M133.2,26.7c-0.3,0-0.6-0.1-1-0.1C132.5,26.6,132.8,26.6,133.2,26.7z"/>
	<path class="st1" d="M274.9,21.8C274.9,21.8,274.9,21.8,274.9,21.8C274.9,21.8,274.9,21.8,274.9,21.8z"/>
</g>
</svg>
